<svg width="712" height="584" viewBox="0 0 712 584" fill="none" xmlns="http://www.w3.org/2000/svg">
<g clip-path="url(#clip0_3778_391)">
<path d="M356.389 160.401V215.331L356.379 215.341L328.179 190.841L328.069 375.641L270.429 343.541L270.409 117.771L213.719 72.5606L328.249 72.3906L328.409 136.581L356.389 160.401Z" fill="black"/>
<path d="M356.39 0H179V43.43H356.39V0Z" fill="black"/>
<path d="M241.469 327.94L179.109 293.14L179.129 70.5195L241.519 129.17L241.469 327.94Z" fill="black"/>
<path d="M356.391 160.401V215.331L356.401 215.341L384.601 190.841L384.711 375.641L442.351 343.541L442.371 117.771L499.061 72.5606L384.531 72.3906L384.371 136.581L356.391 160.401Z" fill="black"/>
<path d="M533.781 0H356.391V43.43H533.781V0Z" fill="black"/>
<path d="M471.312 327.94L533.672 293.14L533.652 70.5195L471.262 129.17L471.312 327.94Z" fill="black"/>
</g>
<path d="M9.49 548V457.26H29.64L41.86 482.35L50.31 501.72H51.09L59.54 482.35L71.5 457.26H91.78V548H73.71V501.59L74.23 486.9H73.06L66.95 500.81L50.57 533.31L34.45 500.81L28.21 486.51H26.91L27.43 501.59V548H9.49ZM169.689 548H110.799V457.26H169.689V474.16H129.909V493.66H163.839V510.43H129.909V531.1H169.689V548ZM235.745 548L211.825 502.24L204.675 485.86H203.375L203.895 503.02V548H185.955V457.26H206.885L230.675 503.02L237.955 519.27H239.125L238.605 502.24V457.26H256.675V548H235.745ZM334.994 474.16H311.854V548H292.614V474.16H269.474V457.26H334.994V474.16ZM366.93 514.2V548H347.82V457.26H388.9C394.447 457.26 399.17 458.473 403.07 460.9C406.97 463.24 409.96 466.533 412.04 470.78C414.12 475.027 415.16 480.053 415.16 485.86C415.16 492.187 413.817 497.69 411.13 502.37C408.53 506.963 404.63 510.213 399.43 512.12L416.2 548H395.14L380.19 514.2H366.93ZM366.93 498.08H386.56C388.38 498.08 389.94 497.777 391.24 497.17C392.54 496.563 393.537 495.61 394.23 494.31C394.923 493.01 395.27 491.363 395.27 489.37V482.61C395.27 480.617 394.923 478.97 394.23 477.67C393.537 476.37 392.54 475.417 391.24 474.81C389.94 474.203 388.38 473.9 386.56 473.9H366.93V498.08ZM490.118 548H431.228V457.26H490.118V474.16H450.338V493.66H484.268V510.43H450.338V531.1H490.118V548ZM558.255 548H506.385V457.26H525.495V531.1H558.255V548ZM623.889 548H572.019V457.26H591.129V531.1H623.889V548ZM667.029 549.56C659.402 549.56 652.729 547.913 647.009 544.62C641.376 541.24 636.956 536.083 633.749 529.15C630.629 522.217 629.069 513.377 629.069 502.63C629.069 491.797 630.629 482.957 633.749 476.11C636.956 469.177 641.376 464.063 647.009 460.77C652.729 457.39 659.402 455.7 667.029 455.7C674.742 455.7 681.416 457.39 687.049 460.77C692.769 464.063 697.189 469.177 700.309 476.11C703.429 482.957 704.989 491.797 704.989 502.63C704.989 513.377 703.429 522.217 700.309 529.15C697.189 536.083 692.769 541.24 687.049 544.62C681.416 547.913 674.742 549.56 667.029 549.56ZM667.029 532.53C670.756 532.53 673.919 531.75 676.519 530.19C679.119 528.63 681.112 526.29 682.499 523.17C683.972 520.05 684.709 516.28 684.709 511.86V493.27C684.709 488.763 683.972 484.993 682.499 481.96C681.112 478.927 679.119 476.63 676.519 475.07C673.919 473.423 670.756 472.6 667.029 472.6C663.389 472.6 660.226 473.423 657.539 475.07C654.939 476.63 652.946 478.927 651.559 481.96C650.172 484.993 649.479 488.763 649.479 493.27V511.86C649.479 516.28 650.172 520.05 651.559 523.17C652.946 526.29 654.939 528.63 657.539 530.19C660.226 531.75 663.389 532.53 667.029 532.53Z" fill="black"/>
<defs>
<clipPath id="clip0_3778_391">
<rect width="354.78" height="375.64" fill="white" transform="translate(179)"/>
</clipPath>
</defs>
</svg>
