<svg width="355" height="376" viewBox="179 0 355 376" fill="none" xmlns="http://www.w3.org/2000/svg">
<path d="M356.389 160.401V215.331L356.379 215.341L328.179 190.841L328.069 375.641L270.429 343.541L270.409 117.771L213.719 72.5606L328.249 72.3906L328.409 136.581L356.389 160.401Z" fill="black"/>
<path d="M356.39 0H179V43.43H356.39V0Z" fill="black"/>
<path d="M241.469 327.94L179.109 293.14L179.129 70.5195L241.519 129.17L241.469 327.94Z" fill="black"/>
<path d="M356.391 160.401V215.331L356.401 215.341L384.601 190.841L384.711 375.641L442.351 343.541L442.371 117.771L499.061 72.5606L384.531 72.3906L384.371 136.581L356.391 160.401Z" fill="black"/>
<path d="M533.781 0H356.391V43.43H533.781V0Z" fill="black"/>
<path d="M471.312 327.94L533.672 293.14L533.652 70.5195L471.262 129.17L471.312 327.94Z" fill="black"/>
</svg>
